<?xml version="1.0" encoding="utf-8"?>
<!-- Generator: Adobe Illustrator 21.0.0, SVG Export Plug-In . SVG Version: 6.00 Build 0)  -->
<svg version="1.0" id="Layer_1" xmlns="http://www.w3.org/2000/svg"  x="0px" y="0px"
	 viewBox="0 0 20 20" style="enable-background:new 0 0 20 20;" xml:space="preserve">
<style type="text/css">
	.st0{fill:#0757A8;}
</style>
<g>
	<path class="st0" d="M10,2.6c2.4,0,2.7,0,3.6,0.1c0.9,0,1.4,0.2,1.7,0.3c0.4,0.2,0.7,0.4,1,0.7c0.3,0.3,0.5,0.6,0.7,1
		c0.1,0.3,0.3,0.8,0.3,1.7c0,0.9,0.1,1.2,0.1,3.6s0,2.7-0.1,3.6c0,0.9-0.2,1.4-0.3,1.7c-0.2,0.4-0.4,0.7-0.7,1
		c-0.3,0.3-0.6,0.5-1,0.7c-0.3,0.1-0.8,0.3-1.7,0.3c-0.9,0-1.2,0.1-3.6,0.1s-2.7,0-3.6-0.1c-0.9,0-1.4-0.2-1.7-0.3
		c-0.4-0.2-0.7-0.4-1-0.7c-0.3-0.3-0.5-0.6-0.7-1c-0.1-0.3-0.3-0.8-0.3-1.7c0-0.9-0.1-1.2-0.1-3.6s0-2.7,0.1-3.6
		C2.7,5.5,2.9,5,3,4.7c0.2-0.4,0.4-0.7,0.7-1C4,3.3,4.3,3.1,4.7,3C5,2.9,5.5,2.7,6.4,2.7C7.3,2.6,7.6,2.6,10,2.6 M10,1
		C7.6,1,7.2,1,6.3,1.1c-1,0-1.6,0.2-2.2,0.4C3.5,1.7,3,2,2.5,2.5C2,3,1.7,3.5,1.5,4.1C1.3,4.7,1.1,5.3,1.1,6.3C1,7.2,1,7.6,1,10
		c0,2.4,0,2.8,0.1,3.7c0,1,0.2,1.6,0.4,2.2c0.2,0.6,0.5,1.1,1,1.6c0.5,0.5,1,0.8,1.6,1c0.6,0.2,1.2,0.4,2.2,0.4c1,0,1.3,0.1,3.7,0.1
		s2.8,0,3.7-0.1c1,0,1.6-0.2,2.2-0.4c0.6-0.2,1.1-0.5,1.6-1c0.5-0.5,0.8-1,1-1.6c0.2-0.6,0.4-1.2,0.4-2.2c0-1,0.1-1.3,0.1-3.7
		s0-2.8-0.1-3.7c0-1-0.2-1.6-0.4-2.2c-0.2-0.6-0.5-1.1-1-1.6c-0.5-0.5-1-0.8-1.6-1c-0.6-0.2-1.2-0.4-2.2-0.4C12.8,1,12.4,1,10,1
		L10,1z"/>
	<path class="st0" d="M10,5.4c-2.6,0-4.6,2.1-4.6,4.6s2.1,4.6,4.6,4.6s4.6-2.1,4.6-4.6S12.6,5.4,10,5.4z M10,13c-1.7,0-3-1.3-3-3
		s1.3-3,3-3s3,1.3,3,3S11.7,13,10,13z"/>
	<circle class="st0" cx="14.8" cy="5.2" r="1.1"/>
</g>
</svg>
