<?xml version="1.0" encoding="utf-8"?>
<!-- Generator: Adobe Illustrator 19.1.0, SVG Export Plug-In . SVG Version: 6.00 Build 0)  -->
<svg version="1.0" id="Layer_1" xmlns="http://www.w3.org/2000/svg" xmlns:xlink="http://www.w3.org/1999/xlink" x="0px" y="0px"
	 viewBox="0 0 15 20" style="enable-background:new 0 0 15 20;" xml:space="preserve">
<style type="text/css">
	.st0{fill:#0757A8;}
</style>
<path class="st0" d="M7.5,10.2c2.6,0,4.6-2,4.6-4.5c0-2.5-2.1-4.5-4.6-4.5c-2.6,0-4.6,2-4.6,4.5C2.9,8.2,4.9,10.2,7.5,10.2z
	 M7.5,3.5c1.3,0,2.3,1,2.3,2.2C9.8,7,8.8,8,7.5,8C6.2,8,5.2,7,5.2,5.8C5.2,4.5,6.2,3.5,7.5,3.5z M12.8,10.8c-0.3-0.5-1-0.9-1.9-0.2
	c-1.3,1-3.4,1-3.4,1s-2.1,0-3.4-1c-1-0.7-1.7-0.3-1.9,0.2c-0.5,0.9,0.1,1.3,1.2,2c1,0.6,2.4,0.8,3.2,0.9l-0.7,0.7c-1,1-2,2-2.7,2.6
	c-0.4,0.4-0.4,1.1,0,1.5l0.1,0.1c0.4,0.4,1.1,0.4,1.5,0l2.7-2.6c1,1,2,2,2.7,2.6c0.4,0.4,1.1,0.4,1.5,0l0.1-0.1
	c0.4-0.4,0.4-1.1,0-1.5l-2.7-2.6l-0.7-0.7c0.9-0.1,2.2-0.3,3.2-0.9C12.8,12.1,13.3,11.7,12.8,10.8z"/>
</svg>
