<?xml version="1.0" encoding="utf-8"?>
<!-- Generator: Adobe Illustrator 19.1.0, SVG Export Plug-In . SVG Version: 6.00 Build 0)  -->
<svg version="1.0" id="Layer_1" xmlns="http://www.w3.org/2000/svg" xmlns:xlink="http://www.w3.org/1999/xlink" x="0px" y="0px"
	 viewBox="0 0 20 20" style="enable-background:new 0 0 20 20;" xml:space="preserve">
<style type="text/css">
	.st0{fill:#1B354A;}
</style>
<path class="st0" d="M15.8,12.3c0.6-1.2,1-2.5,1-3.9C16.7,3.8,13,0,8.4,0C3.7,0,0,3.8,0,8.4c0,4.6,3.8,8.3,8.4,8.3
	c1.4,0,2.7-0.3,3.9-1l0.8,0c0,0,2.8,2.8,4,3.9c0.5,0.5,1.3,0.4,1.7,0c0.6-0.6,0.4-0.4,1-1c0.4-0.4,0.4-1.2-0.1-1.6
	c-1.1-1.1-4-3.9-4-3.9L15.8,12.3z M8.4,13.3c-2.7,0-4.9-2.2-4.9-4.9c0-2.7,2.2-4.9,4.9-4.9c2.7,0,4.9,2.2,4.9,4.9
	C13.3,11.1,11.1,13.3,8.4,13.3z"/>
</svg>
