<?xml version="1.0" encoding="utf-8"?>
<!-- Generator: Adobe Illustrator 19.1.0, SVG Export Plug-In . SVG Version: 6.00 Build 0)  -->
<svg version="1.0" id="Layer_1" xmlns="http://www.w3.org/2000/svg" xmlns:xlink="http://www.w3.org/1999/xlink" x="0px" y="0px"
	 viewBox="0 0 20 20" style="enable-background:new 0 0 20 20;" xml:space="preserve">
<style type="text/css">
	.st0{fill:#0757A8;}
</style>
<path class="st0" d="M20,3c-0.7,0.3-1.5,0.6-2.4,0.7c0.8-0.5,1.5-1.4,1.8-2.4c-0.8,0.5-1.7,0.9-2.6,1C16.1,1.5,15,1,13.8,1
	c-2.3,0-4.1,1.9-4.1,4.3c0,0.3,0,0.7,0.1,1C6.4,6.1,3.4,4.4,1.4,1.8C1,2.4,0.8,3.2,0.8,3.9c0,1.5,0.7,2.8,1.8,3.6
	C2,7.5,1.4,7.3,0.8,7c0,0,0,0,0,0.1c0,2.1,1.4,3.8,3.3,4.2c-0.3,0.1-0.7,0.2-1.1,0.2c-0.3,0-0.5,0-0.8-0.1c0.5,1.7,2,2.9,3.8,3
	c-1.4,1.2-3.2,1.8-5.1,1.8c-0.3,0-0.7,0-1-0.1C1.8,17.3,4,18,6.3,18C13.8,18,18,11.5,18,5.8c0-0.2,0-0.4,0-0.6
	C18.8,4.6,19.4,3.9,20,3z"/>
</svg>
